<?xml version="1.0" encoding="UTF-8" standalone="no"?>
<svg
   width="103"
   height="120"
   viewBox="0 0 103 120"
   fill="none"
   version="1.1"
   id="svg3"
   sodipodi:docname="VRLogo(footer).svg"
   inkscape:version="1.3 (0e150ed6c4, 2023-07-21)"
   xmlns:inkscape="http://www.inkscape.org/namespaces/inkscape"
   xmlns:sodipodi="http://sodipodi.sourceforge.net/DTD/sodipodi-0.dtd"
   xmlns="http://www.w3.org/2000/svg"
   xmlns:svg="http://www.w3.org/2000/svg">
  <defs
     id="defs3" />
  <sodipodi:namedview
     id="namedview3"
     pagecolor="#000000"
     bordercolor="#000000"
     borderopacity="0.25"
     inkscape:showpageshadow="2"
     inkscape:pageopacity="0.0"
     inkscape:pagecheckerboard="0"
     inkscape:deskcolor="#d1d1d1"
     showgrid="false"
     inkscape:zoom="6.7028571"
     inkscape:cx="51.097613"
     inkscape:cy="67.060955"
     inkscape:window-width="3440"
     inkscape:window-height="1369"
     inkscape:window-x="-8"
     inkscape:window-y="355"
     inkscape:window-maximized="1"
     inkscape:current-layer="svg3" />
  <text
     fill="#000000"
     stroke="#ffffff"
     xml:space="preserve"
     style="white-space:pre;stroke-width:0.910212"
     font-family="'Source Serif Pro'"
     font-size="58.2536px"
     letter-spacing="0em"
     id="text2"
     x="1.4746619"
     y="-10.015806"
     transform="scale(0.98124786,1.0191105)"><tspan
       x="1.4746619"
       y="43.373596"
       id="tspan1"
       style="stroke-width:0.910212">V &#10;</tspan><tspan
       x="1.4746619"
       y="116.19058"
       id="tspan2"
       style="stroke-width:0.910212">   R</tspan></text>
  <path
     d="m 70.453477,59.212405 -28.240001,-20.1542 c -0.5974,-0.4264 -1.435,-0.2864 -1.8614,0.3109 l -1.5503,2.1724 c -0.4263,0.5973 -0.2864,1.4349 0.311,1.8613 l 28.2401,20.1542 c 0.5974,0.4263 1.435,0.2864 1.861301,-0.311 l 1.5503,-2.1723 c 0.4264,-0.5974 0.2864,-1.435 -0.311,-1.8613 z m 19.847902,-18.6225 c -1.799,-1.2839 -4.3001,-0.866 -5.583997,0.933 -0.3439,0.482 -0.5551,1.0075 -0.6605,1.5573 l -7.0175,-0.5614 c -1.491195,-0.1216 -2.590095,-1.4387 -2.438495,-2.9289 l 1.376,-13.6288 c 1.152695,-0.079 2.267395,-0.636 2.994095,-1.6543 1.2839,-1.7989 0.866,-4.3 -0.933,-5.5839 -1.7989,-1.2839 -4.300095,-0.866 -5.583905,0.933 -0.7267,1.0182 -0.8911,2.2535 -0.591,3.3692 l -12.441301,5.7319 c -1.3599,0.6278 -2.9696,0.0119 -3.5625,-1.3539 l -2.8054,-6.449 c 0.474,-0.2765 0.914,-0.6489 1.2579,-1.1309 1.2839,-1.799 0.866,-4.3001 -0.9329,-5.584 -1.799,-1.2838 -4.3069,-0.8708 -5.5908,0.9282 -1.2838,1.7989 -0.8659,4.3001 0.933,5.5839 0.1765,0.126 0.3724,0.2248 0.5615,0.3188 l -4.4327,16.5909 26.067801,18.6039 14.248805,-9.5854 c 0.1503,0.1483 0.307397,0.3014 0.483897,0.4273 1.799,1.2839 4.3001,0.866 5.584,-0.9329 1.2838,-1.799 0.8659,-4.3001 -0.933,-5.584 z"
     fill="#ffffff"
     id="path2" />
  <path
     d="m 26.463534,58.494906 28.0217,20.456794 c 0.5927,0.4327 1.4318,0.3018 1.8645,-0.291 l 1.5736,-2.15549 c 0.4328,-0.5928 0.3018,-1.4318 -0.2909,-1.8645 l -28.0217,-20.456804 c -0.5928,-0.4328 -1.4318,-0.3018 -1.8646,0.2909 l -1.5736,2.1555 c -0.4327,0.5928 -0.3018,1.4319 0.291,1.8646 z M 6.4165342,76.9028 c 1.785,1.3032 4.2904998,0.9122 5.5936998,-0.87279 0.3491,-0.4783 0.5659,-1.0015 0.6772,-1.5501 l 7.0111,0.6368 c 1.4897,0.1376 2.5745,1.4665 2.4069,2.95489 l -1.5226,13.613103 c -1.1535,0.067 -2.2741,0.612 -3.0117,1.622 -1.3031,1.785002 -0.9122,4.291002 0.8729,5.594002 1.785,1.303005 4.2905,0.912 5.5936,-0.873 0.7377,-1.01 0.9152,-2.244 0.6272,-3.363 l 12.5022,-5.597998 c 1.3666,-0.613 2.9695,0.021 3.5477,1.393 l 2.736,6.477998 c -0.477,0.272 -0.9209,0.639 -1.2701,1.118 -1.3031,1.785 -0.9121,4.290005 0.8729,5.593005 1.785,1.304 4.2973,0.917 5.6004,-0.868 1.3031,-1.785 0.9122,-4.290005 -0.8729,-5.593005 -0.1751,-0.128 -0.3699,-0.229 -0.558,-0.325 l 4.6108,-16.542301 -25.8661,-18.883198 -14.3511,9.4316 c -0.1487,-0.1498 -0.3042,-0.3046 -0.4793,-0.4325 -1.7849998,-1.3031 -4.2904998,-0.9122 -5.5936998,0.8729 -1.3031,1.785 -0.9121,4.290504 0.8729,5.593594 z"
     fill="#ffffff"
     id="path3" />
</svg>
